<svg xmlns="http://www.w3.org/2000/svg" width="1716" height="595.3" viewBox="0 0 1716 595.3"><style type="text/css"><![CDATA[
	.st0{fill-rule:evenodd;clip-rule:evenodd;fill:#E20025;}
	.st1{fill:#F6A800;}
	.st2{fill:#FFFFFF;}
	.st3{fill-rule:evenodd;clip-rule:evenodd;fill:#F9B41D;}
	.st4{fill:#005198;}
	.st5{fill-rule:evenodd;clip-rule:evenodd;fill:#FFFFFF;}
	.st6{fill-rule:evenodd;clip-rule:evenodd;fill:#00336F;}
]]></style><path class="st2" d="M9.2 56.3v488.6h823.5v-488.6h-823.5z"/><path class="st4" d="M145.6 224.7l48 181.2h55.8l86.7-209.9h-56.5l-54.7 142.5-22.4-111.5-56.9-2.3zM357.2 195.2l-33.3 210.7h52.7l34.1-210.7h-53.5zM565.6 245.6l7.7-44.1s-23.2-9.3-51.1-9.3c-27.9 0-88.3 17.8-88.3 69.7 0 51.9 75.1 54.2 75.1 82.9 0 28.7-67.4 25.6-87.5 7l-8.5 45.7s30.2 11.6 57.3 11.6c27.1 0 94.5-6.2 94.5-73.6 0-58.9-75.1-47.3-75.1-82.9 0 0 7.7-35.7 75.9-7zM561.7 405.9h58.1l10.1-30.2h71.2l5.9 29.9h50.4l-46.2-208.1h-46.5s-17 1.9-24.8 22.5c-7.3 19.5-78.2 185.9-78.2 185.9z"/><path class="st2" d="M692.6 332.3h-47.3l29.5-77.4 17.8 77.4z"/><path class="st4" d="M219 309.3l-16.5-82.3s-2.2-30.9-24.3-30.9h-90v4.3s89 14.7 130.8 108.9z"/><path class="st1" d="M832.7 436.7h-823.5v122.1h823.5z"/><path class="st4" d="M9.2 43.5h823.6v122.1h-823.6z"/><path class="st6" d="M1701.1 558.8v-515.3l-839.2.1v515.2h839.2z"/><path class="st3" d="M1610.8 443c0-3.6 2.9-6.5 6.5-6.5s6.5 2.9 6.5 6.5-2.9 6.5-6.5 6.5-6.5-2.9-6.5-6.5zm6.5 4.9c2.7 0 4.9-2.2 4.9-5s-2.2-5-4.9-5-4.9 2.2-4.9 5c-.1 2.8 2.1 5 4.9 5zm-.9-2.1h-1.3v-5.8h2.4c.5 0 1 0 1.5.3s.7.9.7 1.4c0 .7-.4 1.2-1 1.5l1.1 2.5h-1.5l-.9-2.3h-1v2.4-3.3h.7c.3 0 .6 0 .8-.1.2-.1.3-.4.3-.7 0-.2-.1-.5-.3-.6-.2-.1-.6-.1-.9-.1h-.7v4.8h.1z"/><path class="st5" d="M1610.8 377.1c0-3.6 2.9-6.5 6.5-6.5s6.5 2.9 6.5 6.5-2.9 6.5-6.5 6.5-6.5-2.9-6.5-6.5zm6.5 4.9c2.7 0 4.9-2.2 4.9-5s-2.2-5-4.9-5-4.9 2.2-4.9 5c-.1 2.8 2.1 5 4.9 5zm-.9-2.1h-1.3v-5.7h2.4c.5 0 1 0 1.5.3s.7.9.7 1.4c0 .7-.4 1.3-1 1.5l1.1 2.5h-1.5l-.9-2.3h-1v2.3-3.3h.7c.3 0 .6 0 .8-.1.2-.1.3-.4.3-.7 0-.2-.1-.5-.3-.6-.2-.1-.6-.1-.9-.1h-.7v4.8h.1z"/><path class="st3" d="M1281.5 451.2c35.7 32.6 83.1 52.4 135 52.4 111.1 0 201.2-90.6 201.2-202.4 0-111.8-90.1-202.4-201.2-202.4-52 0-99.3 19.8-135 52.4-40.6 37-66.1 90.5-66.1 150 0 59.4 25.5 112.9 66.1 150z"/><path class="st0" d="M1346.5 279.7c-.8-7.3-1.9-14.4-3.4-21.4h-123.2c1.6-7.3 3.5-14.5 5.8-21.4h111.5c-2.4-7.3-5.3-14.5-8.5-21.4h-94.4c3.4-7.4 7.3-14.5 11.6-21.4h71.2c-4.7-7.5-9.8-14.6-15.3-21.4h-40.6c6.2-7.6 13-14.8 20.3-21.4-35.7-32.6-83.1-52.4-135-52.4-111.1 0-201.2 90.6-201.2 202.4 0 111.8 90.1 202.4 201.2 202.4 52 0 99.3-19.8 135-52.4 7.3-6.6 14.1-13.8 20.3-21.4h-40.6c-5.5-6.8-10.6-13.9-15.3-21.4h71.2c4.3-6.9 8.2-14 11.6-21.4h-94.4c-3.2-6.9-6.1-14.1-8.6-21.4h111.5c2.3-7 4.3-14.1 5.8-21.4 1.5-7 2.6-14.2 3.4-21.4.7-7.1 1.1-14.2 1.1-21.4.2-7.6-.2-14.7-1-21.8z"/><path class="st6" d="M1213.1 359.6c-6.7 1.9-11.4 2.7-16.4 2.7-10.2 0-16.5-6.5-16.5-18.3 0-2.3.2-4.8.7-7.5l1.3-8.2 1-6.6 9.5-57h21l-2.5 12.4h13.1l-3.1 21.1h-13.2l-5.7 34.1c-.3 1.5-.4 2.7-.4 3.5 0 4.3 2.3 6.2 7.4 6.2 2.5 0 4.4-.3 6.7-.8l-2.9 18.4zM1280.6 358.8c-7.5 2.3-14.7 3.4-22.4 3.4-23.4 0-37.1-12.8-37.1-37.4 0-28.7 16.2-49.8 38.1-49.8 18 0 29.4 11.8 29.4 30.4 0 6.1-.8 12.1-2.7 20.6h-43.4c-.2 1.3-.2 1.9-.2 2.6 0 9.7 6.5 14.6 19.2 14.6 7.8 0 14.8-1.6 22.7-5.3l-3.6 20.9zm-13-49.6c.1-1.7.2-3.2.2-4.3 0-6.8-3.8-10.8-10.3-10.8-6.9 0-11.9 5.3-13.9 15l24 .1zM1046.5 360.6h-21.9l12.5-78.9-27.9 78.9h-14.9l-1.8-78.4-13.2 78.4h-21.2l17.1-102.6h31.4l.9 63.5 21.2-63.5h34.5l-16.7 102.6zM1098.9 323.4c-2.3-.3-2.7-.3-4.3-.3-12.4 0-18.6 4.8-18.6 12.7 0 5.2 3.1 8.5 7.8 8.5 10.6 0 14.7-8.5 15.1-20.9zm17.3 37.2h-18.9l.4-8.7c-4.8 6.5-11.3 10.1-22.9 10.1-10.6 0-19.4-9.3-19.4-22.8 0-4 .7-7.6 1.6-10.9 3.4-12.8 16.3-21 36.2-21.3 2.5 0 6.4-.1 9.6.3.7-2.7.9-3.9.9-5.4 0-5.5-4.5-7.3-14.7-7.3-6.2 0-13.2 1.1-18.1 2.5l-3 .9-1.3.3 3-18.8c10.2-3.1 17.3-4.4 25.4-4.4 18.8 0 28.7 8.5 28.7 24.5 0 4.1.4 7.3-1 16.5l-4.6 29.6-.8 5.3-.6 4.2-.4 2.9-.1 2.5zM1385.6 277.9c6.1 0 11.7 1.6 19.5 5.5l3.6-22.3c-1.9-.8-2.5-1-5.3-2l-9-2.3c-2.8-.7-6-1.1-9.8-1.1-10.8 0-17.2.1-23.7 4.2-3.5 2.2-7.9 5.3-13 11l-2.6-.8-22.2 15.9 1.1-8.9h-23.2l-13.3 83.5h21.8l8-44.9s3.1-6.1 4.5-8.1c4-5.4 7.6-5.5 12.1-5.3h1.6c-.7 4.9-1 10.2-1 15.9 0 27.3 15.4 44.3 38.9 44.3 6.1 0 11.2-.8 19.3-3l3.8-23.4c-7.2 3.6-13.2 5.3-18.6 5.3-12.7 0-20.4-9.4-20.4-25 .2-22.6 11.6-38.5 27.9-38.5zM1570.1 258l-4.8 29.3c-5.3-7.9-11.5-11.7-20-11.7-11.5 0-22 6.6-28.7 18.9l.1-.1-13.9-8.3 1.1-8.9h-23.1l-13.3 83.5h21.8l7.2-44.9s5.6-6.3 7-8.2c3.2-4.2 6.8-5.1 9.7-5.3-2.5 7.1-4 15.4-4 24.8 0 20.9 10.8 34.7 26.7 34.7 8 0 14.2-2.8 20.2-9.3l-1.1 8.2h20.7l16.6-102.7h-22.2zm-26.6 83c-7.4 0-11.2-5.5-11.2-16.5 0-16.4 7-28.1 16.9-28.1 7.5 0 11.6 5.8 11.6 16.4.1 16.6-7.1 28.2-17.3 28.2zM1443 323.4c-2.3-.3-2.7-.3-4.3-.3-12.4 0-18.6 4.8-18.6 12.7 0 5.2 3.1 8.5 7.8 8.5 10.5 0 14.7-8.5 15.1-20.9zm17.2 37.2h-18.9l.4-8.7c-4.8 6.5-11.3 10.1-22.9 10.1-10.6 0-20.2-9.1-20.1-22.9.1-19.8 14.9-32.1 38.4-32.1 2.5 0 6.4-.1 9.6.3.7-2.7.9-3.9.9-5.4 0-5.5-4.5-7.3-14.7-7.3-6.2 0-13.2 1.1-18.1 2.5l-3 .9-1.3.3 3-18.8c10.2-3.1 17.3-4.4 25.4-4.4 18.8 0 28.7 8.5 28.7 24.5 0 4.1.4 7.3-1 16.5l-4.6 29.6-.8 5.3-.6 4.2-.4 2.9v2.5zM1161.7 295c4.3 0 10.1.4 16.4 1.3l3.1-19.3c-6.4-1-14.5-1.7-19.5-1.7-24.4 0-32.4 13.1-32.4 28.5 0 9.9 4.8 17.4 16.3 22.8 8.8 4.2 10.4 4.9 10.4 8.7 0 5.2-4.5 8.2-13.1 8.2-6.5 0-12.6-1-19.5-3.3l-2.5 19.2.5.1 4 .8c1.3.3 3.2.6 5.7.8 5.2.5 9.6.8 12.4.8 24.2 0 34.3-9.4 34.3-27.9 0-11.5-5.4-18.2-16.4-23.2-9.1-4.2-10.2-4.8-10.2-8.7-.1-3.8 3.8-7.1 10.5-7.1z"/><path class="st5" d="M1414.6 254.7l-3.6 22.3c-7.8-4-13.5-5.5-19.5-5.5-16.3 0-27.7 15.9-27.7 38.5 0 15.6 7.7 25 20.4 25 5.4 0 11.3-1.7 18.6-5.3l-3.8 23.4c-8 2.2-13.2 3-19.3 3-23.5 0-38.2-17-38.2-44.3 0-36.7 20.2-62.4 49.2-62.4 3.7 0 7 .4 9.8 1.1l9 2.3c2.6.9 3.2 1.1 5.1 1.9zM1344.5 270c-.7-.1-1.4-.2-2.2-.2-7.2 0-11.2 3.7-17.9 13.6l1.9-12.7h-19.8l-13.3 83.5h21.8c7.8-51.1 9.9-59.9 20.4-59.9.7 0 .7 0 1.6.1 1.9-10.1 4.6-17.5 8.3-24.2l-.8-.2zM1218.7 353.2c-6 1.9-10.6 2.7-15.7 2.7-11.2 0-17.3-6.4-17.3-18.3 0-2.3.2-4.8.7-7.5l1.3-8.2 1-6.6 9.5-57h21.7l-2.5 12.4h11.1l-3 20.3h-11.2l-5.8 34.8c-.3 1.5-.4 2.7-.4 3.5 0 4.3 2.3 6.2 7.4 6.2 2.5 0 4.4-.3 5.9-.8l-2.7 18.5zM1134.8 297.1c0 10.6 5.1 17.8 16.6 23.3 8.8 4.2 10.2 5.4 10.2 9.2 0 5.2-3.9 7.5-12.5 7.5-6.5 0-12.6-1-19.5-3.3l-3 19.3 1 .2 4 .8c1.3.3 3.2.5 5.7.7 5.2.5 9.2.7 12 .7 23 0 33.6-8.8 33.6-27.9 0-11.5-4.4-18.2-15.4-23.2-9.1-4.2-10.2-5.2-10.2-9.1 0-4.5 3.6-6.8 10.7-6.8 4.3 0 10.1.5 15.7 1.3l3.1-19.3c-5.6-.9-14.2-1.6-19.2-1.6-24.4-.1-32.9 12.8-32.8 28.2zM1581.3 354.2h-20.7l1.1-8.2c-6 6.4-12.2 9.3-20.2 9.3-15.9 0-26.4-13.8-26.4-34.7 0-27.8 16.3-51.2 35.5-51.2 8.5 0 14.9 3.5 20.9 11.4l4.8-29.3h21.5l-16.5 102.7zm-32.2-19.7c10.2 0 17.3-11.6 17.3-28.2 0-10.6-4.1-16.4-11.6-16.4-9.9 0-17 11.6-17 28.1.1 11 3.9 16.5 11.3 16.5zM1285.4 352.4c-7.5 2.3-14.7 3.4-22.4 3.4-24.4 0-37.1-12.8-37.1-37.4 0-28.7 16.2-49.8 38.1-49.8 18 0 29.4 11.8 29.4 30.3 0 6.2-.8 12.2-2.7 20.6h-43.4c-.2 1.3-.2 1.9-.2 2.6 0 9.7 6.5 14.6 19.2 14.6 7.8 0 14.8-1.6 22.7-5.3l-3.6 21zm-12.3-49.7c.1-1.7.2-3.2.2-4.3 0-6.8-3.8-10.8-10.3-10.8-6.9 0-11.9 5.3-13.9 15l24 .1zM1052 354.2h-21.8l12.5-78.9-27.9 78.9h-14.9l-1.9-78.5-13.1 78.5h-20.5l17.1-102.7h31.4l.9 63.6 21.2-63.6h33.9l-16.9 102.7zM1105.8 317c-2.3-.3-3.3-.3-4.9-.3-12.4 0-18.6 4.3-18.6 12.7 0 5.2 3.1 8.5 7.8 8.5 8.9 0 15.3-8.6 15.7-20.9zm15.9 37.2h-18.1l.4-8.7c-5.5 6.8-12.9 10.1-22.9 10.1-11.8 0-19.9-9.3-19.9-22.8 0-20.3 14.1-32.2 38.3-32.2 2.5 0 5.7.2 8.9.7.7-2.8.9-3.9.9-5.4 0-5.5-3.8-7.6-14-7.6-6.2 0-13.3.9-18.1 2.3l-3 .9-2 .5 3-18.8c10.9-3.2 18.1-4.4 26.1-4.4 18.8 0 28.7 8.5 28.7 24.5 0 4.1-.3 7.3-1.8 16.5l-4.6 29.6-.8 5.3-.6 4.2-.4 2.9-.1 2.4zM1449.8 317c-2.3-.3-3.3-.3-4.9-.3-12.4 0-18.6 4.3-18.6 12.7 0 5.2 3.1 8.5 7.8 8.5 8.9 0 15.4-8.6 15.7-20.9zm15.9 37.2h-18.1l.4-8.7c-5.5 6.8-12.9 10.1-22.9 10.1-11.8 0-19.9-9.3-19.9-22.8 0-20.3 14.1-32.2 38.3-32.2 2.5 0 5.6.2 8.9.7.7-2.8.9-3.9.9-5.4 0-5.5-3.8-7.6-14-7.6-6.2 0-13.3.9-18.1 2.3l-3 .9-2 .5 3-18.8c10.9-3.2 18.1-4.4 26.1-4.4 18.8 0 28.7 8.5 28.7 24.5 0 4.1-.3 7.3-1.8 16.5l-4.6 29.6-.8 5.3-.6 4.2-.4 2.9-.1 2.4zM1524.3 270c-.7-.1-1.4-.2-2.2-.2-7.2 0-11.2 3.7-17.9 13.6l1.9-12.7h-19.8l-13.3 83.5h21.8c7.8-51.1 9.9-59.9 20.4-59.9.7 0 .6 0 1.5.1 1.9-10.1 4.6-17.5 8.3-24.2l-.7-.2z"/></svg>